<svg xmlns="http://www.w3.org/2000/svg" viewBox="0 0 296.66 43.69" width="100%" height="100%" preserveAspectRatio="none"><defs><style>.cls-1{fill:#faa31a;}.cls-2{fill:#e57f25;}.cls-3{isolation:isolate;}.cls-4{fill:#fff;}</style></defs><g id="Layer_2"><g id="Layer_1-2"><path class="cls-1" d="M18.9,27.2c-.1-.1-3.1-5.8-7-9.2L0,18.1c3.4,3.2,11.2,16.8,12.5,21.1C14.7,35.7,18.6,27.5,18.9,27.2Z"/><path class="cls-1" d="M58.7,0c-.5,0-11.3,0-11.6.1A58,58,0,0,0,18.9,27.2,55.2,55.2,0,0,1,24.4,39c.9-1.4,6.1-26.4,34.6-39Z"/><path class="cls-2" d="M18.2,28.3c-2.2,3.4-3.4,7.4-5.7,10.8,4,0,7.9-.1,11.9-.1a50.76,50.76,0,0,0-5.5-11.8A4.13,4.13,0,0,0,18.2,28.3Z"/><g class="cls-3"><g class="cls-3"><path class="cls-4" d="M35.23,28.89c0-5.52,4.2-9.59,9.89-9.59A9.14,9.14,0,0,1,52,22.05l-1.27,1.27a7.46,7.46,0,0,0-5.58-2.24,7.82,7.82,0,1,0,0,15.63,7.37,7.37,0,0,0,5.58-2.27L52,35.71a9.19,9.19,0,0,1-6.93,2.78A9.46,9.46,0,0,1,35.23,28.89Z"/><path class="cls-4" d="M68.91,30.11v8.22H67v-8c0-3-1.56-4.53-4.26-4.53-3,0-5,1.88-5,5.12v7.44H55.87v-20h1.91v8.3A6,6,0,0,1,63.09,24C66.54,24,68.91,26,68.91,30.11Z"/><path class="cls-4" d="M86.51,31.83H74.65a5.24,5.24,0,0,0,5.58,4.93,5.6,5.6,0,0,0,4.34-1.86l1.07,1.24a7,7,0,0,1-5.47,2.32c-4.42,0-7.43-3-7.43-7.22A6.82,6.82,0,0,1,79.66,24c4,0,6.87,2.94,6.87,7.2C86.53,31.4,86.51,31.62,86.51,31.83ZM74.65,30.4h10a5,5,0,0,0-10,0Z"/></g><g class="cls-3"><path class="cls-4" d="M88.87,31.24a7,7,0,0,1,7.3-7.2,6.19,6.19,0,0,1,5.55,2.81l-1.43,1a4.82,4.82,0,0,0-4.12-2.11,5.21,5.21,0,0,0-5.36,5.53,5.19,5.19,0,0,0,5.36,5.52,4.78,4.78,0,0,0,4.12-2.07l1.43,1a6.25,6.25,0,0,1-5.55,2.8A7,7,0,0,1,88.87,31.24Z"/><path class="cls-4" d="M110.5,31.21l-3.34,3.07v4h-1.91v-20h1.91V31.88l8.46-7.73H118l-6.07,5.79,6.63,8.39h-2.34Z"/></g><g class="cls-3"><path class="cls-4" d="M140.89,19.46V38.33H139V23.24l-7.41,12.69h-.95l-7.41-12.61v15H121.3V19.46h1.64l8.2,14,8.11-14Z"/><path class="cls-4" d="M158.54,24.15,151.45,40c-1.18,2.78-2.69,3.67-4.71,3.67a4.82,4.82,0,0,1-3.45-1.3l.89-1.42A3.52,3.52,0,0,0,146.76,42c1.27,0,2.13-.59,2.94-2.37l.62-1.37L144,24.15h2l5.34,12.05,5.33-12.05Z"/><path class="cls-4" d="M159.62,36l.78-1.54a9.24,9.24,0,0,0,6.22,2.29c3.53,0,5.07-1.48,5.07-3.34,0-5.18-11.62-2-11.62-9,0-2.77,2.16-5.17,7-5.17A10.65,10.65,0,0,1,172.87,21l-.67,1.59A9.71,9.71,0,0,0,167,21c-3.45,0-5,1.53-5,3.42,0,5.17,11.61,2,11.61,8.92,0,2.78-2.2,5.15-7,5.15C163.79,38.49,161,37.49,159.62,36Z"/><path class="cls-4" d="M176.16,31.24a7,7,0,0,1,7.3-7.2A6.19,6.19,0,0,1,189,26.85l-1.43,1a4.8,4.8,0,0,0-4.12-2.11,5.21,5.21,0,0,0-5.36,5.53,5.19,5.19,0,0,0,5.36,5.52,4.76,4.76,0,0,0,4.12-2.07l1.43,1a6.25,6.25,0,0,1-5.55,2.8A7,7,0,0,1,176.16,31.24Z"/><path class="cls-4" d="M191.09,31.24a7.21,7.21,0,0,1,14.41,0,7.21,7.21,0,1,1-14.41,0Zm12.47,0a5.27,5.27,0,1,0-10.53,0,5.27,5.27,0,1,0,10.53,0Z"/><path class="cls-4" d="M216.55,24V25.9l-.46,0c-3,0-4.77,1.88-4.77,5.22v7.23h-1.91V24.15h1.83v2.78C212.13,25,213.94,24,216.55,24Z"/><path class="cls-4" d="M232.21,31.83H220.35a5.24,5.24,0,0,0,5.58,4.93,5.6,5.6,0,0,0,4.34-1.86l1.07,1.24a7,7,0,0,1-5.47,2.32c-4.41,0-7.43-3-7.43-7.22a6.82,6.82,0,0,1,6.92-7.2c4,0,6.87,2.94,6.87,7.2C232.23,31.4,232.21,31.62,232.21,31.83ZM220.35,30.4H230.4a5,5,0,0,0-10.05,0Z"/><path class="cls-4" d="M234.9,37a1.43,1.43,0,0,1,1.43-1.46A1.45,1.45,0,0,1,237.78,37a1.47,1.47,0,0,1-1.45,1.48A1.45,1.45,0,0,1,234.9,37Z"/><path class="cls-4" d="M240,31.24a7,7,0,0,1,7.3-7.2,6.19,6.19,0,0,1,5.55,2.81l-1.43,1a4.82,4.82,0,0,0-4.12-2.11A5.21,5.21,0,0,0,242,31.24a5.19,5.19,0,0,0,5.36,5.52,4.78,4.78,0,0,0,4.12-2.07l1.43,1a6.25,6.25,0,0,1-5.55,2.8A7,7,0,0,1,240,31.24Z"/><path class="cls-4" d="M255,31.24a7.21,7.21,0,0,1,14.41,0,7.21,7.21,0,1,1-14.41,0Zm12.47,0a5.27,5.27,0,1,0-10.53,0,5.27,5.27,0,1,0,10.53,0Z"/><path class="cls-4" d="M296.66,30.11v8.22h-1.91v-8c0-3-1.51-4.53-4.07-4.53-2.91,0-4.74,1.88-4.74,5.12v7.44H284v-8c0-3-1.51-4.53-4.09-4.53-2.89,0-4.75,1.88-4.75,5.12v7.44h-1.91V24.15h1.83v2.59a5.73,5.73,0,0,1,5.2-2.7,5.09,5.09,0,0,1,5,3A6.19,6.19,0,0,1,291,24C294.4,24,296.66,26,296.66,30.11Z"/></g></g></g></g></svg>